<?xml version="1.0" encoding="UTF-8" standalone="no"?>
<!-- Created with Inkscape (http://www.inkscape.org/) -->

<svg
   xmlns:dc="http://purl.org/dc/elements/1.1/"
   xmlns:cc="http://creativecommons.org/ns#"
   xmlns:rdf="http://www.w3.org/1999/02/22-rdf-syntax-ns#"
   xmlns:svg="http://www.w3.org/2000/svg"
   xmlns="http://www.w3.org/2000/svg"
   xmlns:xlink="http://www.w3.org/1999/xlink"
   xmlns:sodipodi="http://sodipodi.sourceforge.net/DTD/sodipodi-0.dtd"
   xmlns:inkscape="http://www.inkscape.org/namespaces/inkscape"
   width="1280"
   height="720"
   viewBox="0 0 338.66668 190.5"
   version="1.1"
   id="svg8"
   inkscape:version="0.92.1 r15371"
   sodipodi:docname="Kerala_Houseboat.svg">
  <title
     id="title4533">Kerala Houseboat Traditional Tourism</title>
  <defs
     id="defs2">
    <linearGradient
       inkscape:collect="always"
       id="linearGradient4521">
      <stop
         style="stop-color:#ae8134;stop-opacity:1;"
         offset="0"
         id="stop4517" />
      <stop
         style="stop-color:#ae8134;stop-opacity:0;"
         offset="1"
         id="stop4519" />
    </linearGradient>
    <linearGradient
       inkscape:collect="always"
       id="linearGradient4509">
      <stop
         style="stop-color:#1a0c08;stop-opacity:0.26262626"
         offset="0"
         id="stop4505" />
      <stop
         style="stop-color:#1a0c08;stop-opacity:0"
         offset="1"
         id="stop4507" />
    </linearGradient>
    <linearGradient
       inkscape:collect="always"
       id="linearGradient5441">
      <stop
         style="stop-color:#bf9d4d;stop-opacity:1"
         offset="0"
         id="stop5437" />
      <stop
         style="stop-color:#fcd26d;stop-opacity:1"
         offset="1"
         id="stop5439" />
    </linearGradient>
    <linearGradient
       inkscape:collect="always"
       id="linearGradient4502">
      <stop
         style="stop-color:#64b5f6;stop-opacity:1;"
         offset="0"
         id="stop4498" />
      <stop
         style="stop-color:#64b5f6;stop-opacity:0;"
         offset="1"
         id="stop4500" />
    </linearGradient>
    <linearGradient
       inkscape:collect="always"
       xlink:href="#linearGradient4502"
       id="linearGradient4506"
       x1="183.48055"
       y1="109.37666"
       x2="183.48053"
       y2="285.24014"
       gradientUnits="userSpaceOnUse" />
    <filter
       inkscape:label="Film Grain"
       inkscape:menu="Image Effects"
       inkscape:menu-tooltip="Adds a small scale graininess"
       style="color-interpolation-filters:sRGB;"
       id="filter4536">
      <feTurbulence
         type="fractalNoise"
         numOctaves="3"
         baseFrequency="1"
         seed="199.23371647509578"
         result="result0"
         id="feTurbulence4526" />
      <feColorMatrix
         result="result4"
         values="0"
         type="saturate"
         id="feColorMatrix4528"
         seed="199" />
      <feComposite
         in="SourceGraphic"
         in2="result4"
         operator="arithmetic"
         k1="1.25"
         k2="0.5"
         k3="0.5"
         result="result2"
         id="feComposite4530" />
      <feBlend
         result="result5"
         mode="soft-light"
         in2="SourceGraphic"
         id="feBlend4532" />
      <feComposite
         in="result5"
         in2="SourceGraphic"
         operator="in"
         result="result3"
         id="feComposite4534" />
    </filter>
    <linearGradient
       inkscape:collect="always"
       xlink:href="#linearGradient5441"
       id="linearGradient5443"
       x1="157.89955"
       y1="246.06772"
       x2="159.60045"
       y2="188.52084"
       gradientUnits="userSpaceOnUse" />
    <linearGradient
       inkscape:collect="always"
       xlink:href="#linearGradient4509"
       id="linearGradient4511"
       x1="176.13062"
       y1="241.67525"
       x2="176.13062"
       y2="273.21301"
       gradientUnits="userSpaceOnUse" />
    <linearGradient
       inkscape:collect="always"
       xlink:href="#linearGradient4521"
       id="linearGradient4523"
       x1="575.12958"
       y1="329.534"
       x2="571.73145"
       y2="563.0177"
       gradientUnits="userSpaceOnUse" />
  </defs>
  <sodipodi:namedview
     id="base"
     pagecolor="#ffffff"
     bordercolor="#666666"
     borderopacity="1.0"
     inkscape:pageopacity="0.0"
     inkscape:pageshadow="2"
     inkscape:zoom="0.7"
     inkscape:cx="692.69584"
     inkscape:cy="321.46582"
     inkscape:document-units="px"
     inkscape:current-layer="layer1"
     showgrid="false"
     units="px"
     inkscape:window-width="1600"
     inkscape:window-height="838"
     inkscape:window-x="-8"
     inkscape:window-y="-8"
     inkscape:window-maximized="1"
     inkscape:snap-global="false" />
  <metadata
     id="metadata5">
    <rdf:RDF>
      <cc:Work
         rdf:about="">
        <dc:format>image/svg+xml</dc:format>
        <dc:type
           rdf:resource="http://purl.org/dc/dcmitype/StillImage" />
        <dc:title>Kerala Houseboat Traditional Tourism</dc:title>
        <cc:license
           rdf:resource="http://creativecommons.org/publicdomain/zero/1.0/" />
      </cc:Work>
      <cc:License
         rdf:about="http://creativecommons.org/publicdomain/zero/1.0/">
        <cc:permits
           rdf:resource="http://creativecommons.org/ns#Reproduction" />
        <cc:permits
           rdf:resource="http://creativecommons.org/ns#Distribution" />
        <cc:permits
           rdf:resource="http://creativecommons.org/ns#DerivativeWorks" />
      </cc:License>
    </rdf:RDF>
  </metadata>
  <g
     inkscape:label="Layer 1"
     inkscape:groupmode="layer"
     id="layer1"
     transform="translate(0,-106.50001)"
     style="display:inline">
    <rect
       style="fill:url(#linearGradient4506);fill-opacity:1;fill-rule:nonzero;stroke:none;stroke-width:0.5;stroke-miterlimit:4;stroke-dasharray:none;stroke-dashoffset:0;stroke-opacity:1"
       id="rect4496"
       width="340.50137"
       height="190.29591"
       x="-1.0690782"
       y="107.23865"
       ry="1.5335383" />
    <path
       style="fill:#4caf50;fill-rule:evenodd;stroke:none;stroke-width:0.26458335px;stroke-linecap:butt;stroke-linejoin:miter;stroke-opacity:1"
       d="m -0.75595241,218.00299 c 0,0 51.40476241,17.76488 98.65178841,13.98512 47.247024,-3.77976 119.818454,-8.31548 167.443454,-8.31548 47.62499,0 73.70537,13.98512 73.70537,13.98512 v 60.09822 H -1.1339286 Z"
       id="path4525"
       inkscape:connector-curvature="0"
       sodipodi:nodetypes="csscccc" />
    <path
       style="fill:#2196f3;stroke:#000000;stroke-width:0.18653619px;stroke-linecap:butt;stroke-linejoin:miter;stroke-opacity:1"
       d="m -1.2251332,246.89078 c 22.9884602,-2.62749 32.7627742,0.80695 36.9082342,0.69272 4.14546,-0.11424 12.81324,-1.4851 16.9587,-1.4851 4.14546,0 8.29092,1.37086 13.1901,1.71357 4.89918,0.34272 5.27604,1.59935 14.32068,-0.22847 9.04465,-1.82782 11.3058,-1.94206 15.82812,-1.71358 4.522329,0.22848 15.074399,2.17053 21.104169,2.51325 6.02975,0.34271 10.17521,-0.22848 16.20498,-0.79967 6.02975,-0.57119 13.1901,-2.0563 16.58184,-1.4851 3.39174,0.57119 6.40662,0.68543 9.79836,1.14238 3.39173,0.45695 5.27604,0.79967 10.55208,0.57119 5.27604,-0.22847 5.27604,-0.22847 13.94382,-1.02814 8.66778,-0.79967 10.92893,-1.48511 15.0744,-1.14239 4.14547,0.34272 9.04464,0.91391 12.43638,1.02815 3.39174,0.11424 3.01487,1.82782 12.05952,0.34272 9.04465,-1.48511 10.55209,-1.82782 12.05952,-1.82782 1.50744,0 1.50744,0 4.52233,0.11423 3.01487,0.11424 18.46613,2.51325 20.72728,2.62749 2.26118,0.11424 4.52233,0.11424 8.29092,0.11424 3.76861,0 22.98848,-2.51325 29.01823,-2.51325 6.02976,0 12.05952,-0.34271 17.71243,1.02815 5.6529,1.37086 10.55207,1.82782 14.32068,1.71358 3.76859,-0.11424 4.14545,-0.79967 7.5372,-0.79967 3.39173,0 1.50744,50.06529 1.50744,50.06529 H -1.0690782 L -1.0861832,250.117 Z"
       id="path4508"
       inkscape:connector-curvature="0"
       sodipodi:nodetypes="ccscsssscccsccssscsscsscccc" />
    <path
       style="fill:#1a0c08;stroke:#000000;stroke-width:0.25187469px;stroke-linecap:butt;stroke-linejoin:miter;stroke-opacity:1;fill-opacity:1"
       d="m 47.081595,216.96117 c 0,0 0.719641,17.99105 9.715166,24.108 8.995523,6.11696 13.673196,6.47679 16.911584,6.47679 3.23839,0 169.475675,1.07945 169.475675,1.07945 0,0 29.16672,-1.85103 37.42182,-11.1856 6.11698,-7.19643 9.35491,-21.19828 8.63525,-23.71702 -0.71963,-2.51876 5.75715,-9.71517 5.75715,-9.71517 l -25.54729,5.39731 c 0,0 -7.55624,2.51874 -5.75713,5.0375 1.79909,2.51874 6.11695,8.63569 7.19642,4.31784 1.07945,-4.31784 1.43928,1.79911 1.43928,1.79911 0,0 -6.83661,11.15445 -20.50981,10.07498 -13.67319,-1.07945 -170.555125,1.07947 -170.555125,1.07947 0,0 -16.551763,-2.51875 -21.589256,-5.03749 -5.037493,-2.51875 0.719641,-1.43929 0.719641,-1.43929 0,0 6.476779,-5.03749 3.958031,-7.55624 -2.518746,-2.51874 -15.832123,-4.31785 -15.832123,-4.31785 z"
       id="path4510"
       inkscape:connector-curvature="0"
       sodipodi:nodetypes="cssccccccccccccccc" />
    <path
       style="fill:url(#linearGradient5443);fill-opacity:1;stroke:none;stroke-width:0.26458335px;stroke-linecap:butt;stroke-linejoin:miter;stroke-opacity:1"
       d="m 226.40774,231.61013 c 0,0 -0.37797,-5.66964 -0.37797,-12.85119 0,-7.18155 7.55952,-26.08036 7.55952,-26.08036 0,0 1.88988,-1.13393 0.37798,-2.26785 -1.51191,-1.13393 -17.76488,6.80357 -22.67857,7.55952 -4.91369,0.75595 -49.51489,-1.5119 -64.63394,-1.88988 -15.11904,-0.37798 -44.22321,3.40178 -48.380948,3.40178 -4.157737,0 -19.654762,-3.77976 -22.300595,-3.77976 -2.645833,0 -4.157739,6.4256 -4.535715,14.74107 -0.377976,8.31548 1.133927,19.27679 1.133927,19.27679 l 8.693156,1.99358 z"
       id="path4512"
       inkscape:connector-curvature="0"
       sodipodi:nodetypes="csccsssssccc" />
    <path
       style="fill:url(#linearGradient4523);fill-opacity:1;fill-rule:nonzero;stroke:none;stroke-width:3.59871578;stroke-miterlimit:4;stroke-dasharray:none;stroke-dashoffset:0;stroke-opacity:1"
       d="m 883.32422,316.79297 0.29883,0.30078 -6.46289,6.46484 -4.62305,-4.62109 c -1.43397,0.45391 -3.0226,1.00283 -4.63672,1.56641 l 6.1582,6.15625 -6.46484,6.46289 -6.46289,-6.46289 5.83398,-5.83399 c -3.96157,1.4027 -8.34038,3.05915 -12.99218,4.87695 l 0.95703,0.95704 -6.46485,6.46679 -3.75976,-3.76172 c -1.47385,0.58763 -2.95381,1.1752 -4.4375,1.76758 l 5.0957,5.09375 -6.46289,6.4668 -6.4668,-6.4668 3.2793,-3.27929 c -3.46169,1.37727 -6.90323,2.74289 -10.23437,4.03125 l -5.71094,5.71093 -2.5918,-2.58984 c -1.55474,0.56925 -3.10238,1.13274 -4.55859,1.63867 l 4.04883,4.04883 -6.46485,6.4668 -6.41211,-6.41211 1.83008,-1.83008 c -2.72821,0.80809 -5.12632,1.40765 -7.04687,1.70312 -0.268,0.0412 -0.67423,0.0709 -1.00391,0.10743 l 0.0195,0.0195 -6.4668,6.46289 -6.01757,-6.01758 c -2.07507,0.0117 -4.62974,-0.015 -7.0625,-0.0312 l -6.04883,6.04883 -6.21094,-6.21094 c -2.17555,-0.0405 -4.25185,-0.0722 -6.58203,-0.125 l -6.33594,6.33594 -6.4668,-6.46289 0.19532,-0.19532 c -2.19261,-0.0614 -4.51398,-0.13265 -6.79297,-0.20117 l 0.39648,0.39649 -6.46484,6.46289 -6.46485,-6.46289 0.76172,-0.76172 c -2.58771,-0.0852 -5.33777,-0.18386 -7.99804,-0.27539 l 1.03711,1.03711 -6.41602,6.41211 -6.46289,-6.46289 1.34961,-1.34961 c -3.02786,-0.10905 -6.16069,-0.2292 -9.24609,-0.34375 l 1.69336,1.69531 -6.4629,6.46289 -6.46679,-6.46289 2.03515,-2.03516 c -3.5282,-0.13423 -7.12621,-0.28139 -10.68945,-0.41992 l 2.45313,2.45508 -6.4629,6.46289 -6.46484,-6.46289 2.75781,-2.75977 c -4.07796,-0.16047 -8.12244,-0.31591 -12.19726,-0.47851 l 3.23828,3.23828 -6.4668,6.46289 -6.46289,-6.46289 3.48047,-3.48242 c -2.02322,-0.0811 -3.94817,-0.15732 -5.96094,-0.23828 l -0.61914,0.61914 -0.66992,-0.66993 c -2.21001,-0.0889 -4.27532,-0.17143 -6.4668,-0.25976 l 4.03321,4.03125 -6.4668,6.46484 -6.46289,-6.46484 4.21875,-4.2207 c -2.00476,-0.0808 -3.97921,-0.15852 -5.96094,-0.23829 l -1.35742,1.35743 -1.47266,-1.47266 c -2.13393,-0.0858 -4.3592,-0.17374 -6.45898,-0.25781 l 4.83203,4.83203 -6.46484,6.46289 -6.4668,-6.46289 4.95898,-4.95899 c -2.02288,-0.0808 -3.98127,-0.15769 -5.96484,-0.23632 l -2.09375,2.0957 -2.25976,-2.26172 c -2.25963,-0.089 -4.25018,-0.16279 -6.44532,-0.24805 l 5.60547,5.60938 -6.4668,6.46289 -6.46289,-6.46289 5.67188,-5.67188 c -2.01906,-0.0781 -4.02056,-0.15412 -5.97656,-0.22851 l -2.79883,2.79687 -3.01953,-3.02148 c -4.09357,-0.15252 -8.2857,-0.3093 -12.01368,-0.43945 l -3.77734,3.77929 -4.05078,-4.04883 c -3.90926,-0.12718 -7.41663,-0.22794 -10.71484,-0.3164 l -4.36328,4.36523 -4.52735,-4.52539 c -3.25546,-0.0174 -6.64113,0.005 -10.14648,0.0664 l -4.45899,4.46094 -4.23828,-4.23829 c -3.61857,0.11725 -7.31554,0.26139 -11.09766,0.43946 l -3.79492,3.79687 -3.40625,-3.40625 c -1.9609,0.10738 -3.89117,0.20234 -5.8789,0.32227 l 6.18554,6.18164 -6.46679,6.4668 -6.46289,-6.46289 6.14843,-6.15235 c -2.19083,0.13336 -4.42321,0.29054 -6.63867,0.4375 l -2.61328,2.61328 -2.28516,-2.28515 c -1.92841,0.13497 -3.84772,0.27082 -5.78515,0.41406 l 4.9707,4.97266 -6.14844,6.14453 -6.46289,-6.46289 4.40821,-4.40625 c -2.24042,0.17019 -4.47695,0.33462 -6.71875,0.51367 l -0.79102,0.79101 -0.67969,-0.67773 c -1.91461,0.15444 -3.80941,0.32085 -5.71875,0.48047 l 3.29883,3.30078 -6.46484,6.46289 -6.46485,-6.46289 2.71875,-2.71875 c -3.60158,0.31254 -7.14401,0.63303 -10.68164,0.95508 l 1.76368,1.76367 -6.4668,6.46289 -6.46289,-6.46289 0.79492,-0.79492 c -2.44299,0.23075 -4.72874,0.45418 -7.10938,0.68359 l 0.11133,0.11133 -6.46679,6.46484 -5.44141,-5.4414 c -3.2786,0.32322 -6.07235,0.59436 -9.14844,0.90039 l -4.53906,4.53906 -3.7207,-3.71875 c -1.80921,0.17962 -3.93552,0.39093 -5.63868,0.55859 l 6.25782,6.25782 -6.46289,6.46679 -6.46485,-6.46289 6.21485,-6.2168 c -2.43601,0.23958 -4.67073,0.45415 -6.86329,0.66407 l -2.45312,2.45117 -2.02734,-2.02734 c -2.03643,0.18869 -3.95313,0.36126 -5.69141,0.50976 l 4.61523,4.61914 -6.46289,6.46289 -6.46289,-6.46289 4.30274,-4.30664 c -2.76147,0.20665 -5.11226,0.35429 -6.57032,0.36914 l -0.83593,0.83594 -0.86328,-0.86328 c -1.87242,-0.0774 -4.2001,-0.30677 -6.84961,-0.64649 l 4.61328,4.61133 -6.46485,6.46289 -6.46484,-6.46289 5.06836,-5.0664 c -1.69682,-0.24839 -3.48565,-0.52765 -5.36523,-0.83985 l -2.80274,2.80274 -3.98242,-3.98243 c -3.00155,-0.54424 -6.12842,-1.13738 -9.30859,-1.75195 l -5.78711,5.78516 -6.46485,-6.46289 1.44727,-1.44727 c -3.88138,-0.77559 -7.66674,-1.53479 -11.375,-2.27734 l 3.72461,3.72461 -6.46289,6.46289 -6.4668,-6.46289 4.63086,-4.62891 c -1.81315,-0.35936 -3.49267,-0.68327 -5.18945,-1.01172 l -2.54102,2.54297 -3.74023,-3.73828 c -4.07687,-0.74573 -7.52965,-1.31669 -10.04102,-1.61328 l -5.34961,5.35156 -3.03125,-3.0332 c -0.91759,0.95397 -1.78343,2.16581 -2.59766,3.60351 l 2.5293,2.52735 -6.03515,6.03125 c -0.76467,2.49292 -1.4491,5.28044 -2.07032,8.27539 l 1.63867,-1.63867 6.4668,6.46484 -6.41211,6.41211 -3.12109,-3.1211 c -0.26304,1.77184 -0.50529,3.59668 -0.72852,5.47461 l 0.7461,0.7461 -0.95118,0.95117 c -0.24609,2.22311 -0.46421,4.51262 -0.65624,6.85938 l 4.71093,-4.70704 6.46289,6.46289 -6.46289,6.46289 -4.95312,-4.95117 c -0.13395,1.92002 -0.25228,3.87113 -0.35157,5.85547 l 2.20118,2.20117 -2.37696,2.37696 c -0.0632,2.0777 -0.10115,4.18079 -0.11132,6.31445 l 5.59179,-5.5918 6.46289,6.4668 -6.46289,6.46289 -5.60351,-5.59961 c 0.003,2.08034 0.0276,4.1717 0.0723,6.27149 l 2.42969,2.42968 -2.29297,2.29493 c 0.0683,1.99826 0.15006,3.98132 0.2461,5.95703 l 5.14843,-5.14649 6.41211,6.41211 -6.4668,6.46289 -4.96093,-4.96094 c 0.12265,2.242 0.2623,4.44373 0.41015,6.61133 l 1.45118,1.45117 -1.25586,1.25586 c 0.14452,1.96959 0.29492,3.88585 0.45117,5.75196 l 3.90429,-3.90625 6.4668,6.46484 -6.4668,6.46289 -3.39648,-3.39648 c 0.42398,4.53215 0.83593,8.49741 1.20898,11.78906 l 2.1875,-2.18945 6.4629,6.46484 -5.61524,5.61719 5.04492,1.15625 3.67383,-3.67188 5.86133,5.85938 8.03906,1.84375 -1.23633,-1.23633 6.4668,-6.4668 6.4668,6.46289 -3.1543,3.1543 6.20508,-0.004 0.0488,-0.0488 0.0488,0.0488 6.19532,-0.006 -3.14453,-3.14453 6.46289,-6.46289 6.46679,6.46289 -3.13867,3.14063 6.20508,-0.004 0.0352,-0.0351 0.0351,0.0351 6.19531,-0.006 -3.1289,-3.13086 6.46289,-6.46289 6.46484,6.46289 -3.125,3.12696 6.20703,-0.004 0.0176,-0.0176 0.0176,0.0176 6.20117,-0.006 -3.11523,-3.11719 6.46289,-6.46289 6.46289,6.46289 -3.11133,3.11328 6.21094,-0.004 0.004,-0.004 0.004,0.004 6.19922,-0.006 -3.10352,-3.10156 6.41211,-6.41211 6.46289,6.46289 -3.04492,3.04687 12.28516,-0.01 -3.03516,-3.03516 6.46485,-6.46484 6.46289,6.46484 -3.0293,3.03125 12.25391,-0.01 -3.02344,-3.02344 6.46484,-6.46289 6.46485,6.46484 -3.01563,3.01758 12.22461,-0.01 -3.00976,-3.00976 6.46679,-6.46289 6.4668,6.46484 -3.00391,3.00391 12.19922,-0.01 -2.99609,-2.99414 6.46679,-6.46484 6.14454,6.14843 -3.30664,3.30664 6.20703,-0.004 0.20312,-0.20313 0.20313,0.20313 6.19531,-0.006 -3.29883,-3.29883 6.46289,-6.46289 6.4668,6.46289 -3.29688,3.29492 6.20703,-0.004 0.18946,-0.18946 0.18945,0.18946 6.19727,-0.006 -3.28516,-3.28516 6.46289,-6.4668 6.46484,6.4668 -3.2832,3.28125 6.20899,-0.004 0.17578,-0.17579 0.17578,0.17579 6.19922,-0.006 -3.27149,-3.27149 6.46289,-6.4668 6.46289,6.46485 -3.26757,3.26953 6.20898,-0.004 0.16211,-0.16211 0.16211,0.16211 6.19531,-0.006 -3.25781,-3.25781 6.46484,-6.4668 6.46485,6.46485 -3.25586,3.25586 6.20703,-0.004 0.14844,-0.14844 0.14843,0.14844 6.19727,-0.006 -3.2461,-3.24414 6.46485,-6.4668 6.4668,6.4668 -3.24219,3.24024 6.20703,-0.004 0.13477,-0.13477 0.13476,0.13477 6.19922,-0.006 -3.23438,-3.23242 6.4668,-6.46485 6.46289,6.4668 -3.22656,3.22656 6.20898,-0.004 0.1211,-0.1211 0.12109,0.1211 6.19727,-0.006 -3.21875,-3.2168 6.46289,-6.46289 6.46679,6.46289 -3.21289,3.21289 6.20508,-0.004 0.10742,-0.10743 0.10743,0.10743 6.19531,-0.006 -3.20117,-3.20118 6.14648,-6.14843 6.46289,6.46289 -2.88086,2.88281 11.95703,-0.008 -2.87304,-2.87305 6.46484,-6.46484 6.46289,6.46484 -2.86523,2.86719 11.92578,-0.008 -2.85742,-2.85938 6.46679,-6.46484 6.46289,6.46289 -2.85547,2.85547 11.90235,-0.008 -2.84766,-2.84765 6.4668,-6.46289 6.4668,6.46484 -2.83985,2.83984 11.8711,-0.008 -2.83204,-2.83203 6.46485,-6.46484 6.41211,6.41211 -2.87891,2.8789 11.95313,-0.008 -2.8711,-2.87305 6.46289,-6.46289 6.4668,6.46289 -2.86719,2.86719 11.92578,-0.008 -2.85937,-2.85938 6.4668,-6.46289 6.46289,6.46289 -2.85157,2.85352 11.89844,-0.008 -2.84375,-2.84571 6.46289,-6.46679 6.46485,6.46679 -2.83789,2.83985 11.87109,-0.008 -2.83008,-2.83203 6.46289,-6.46289 6.46289,6.4668 -2.82226,2.82227 11.8457,-0.008 -2.81641,-2.81836 6.46289,-6.46289 6.46289,6.46289 -2.81054,2.8125 11.8164,-0.008 -2.80273,-2.80469 6.46289,-6.46289 6.46484,6.46289 -2.79687,2.79883 11.78906,-0.01 -2.78906,-2.78907 6.46289,-6.46289 6.4668,6.46289 -2.78516,2.78516 11.75781,-0.01 -2.77343,-2.77343 6.41601,-6.41211 6.46289,6.46289 -2.7168,2.71875 11.625,-0.008 -2.70898,-2.70899 3.79883,-3.79687 c -0.16165,-3.13444 -0.34101,-6.95628 -0.52344,-12.06446 l -3.27344,-3.27344 3.07227,-3.07226 c -0.0556,-1.9569 -0.10702,-3.93131 -0.15234,-6.04883 l -6.02149,6.02149 -6.46289,-6.4668 6.46289,-6.46289 6.00586,6.00195 c -0.042,-2.05837 -0.0831,-4.12663 -0.11133,-6.31055 l -2.79297,-2.79296 2.75196,-2.75 c -0.0101,-1.6186 -0.0312,-3.18437 -0.0312,-4.84961 0,-0.4331 0.0267,-0.90811 0.041,-1.36328 l -5.86328,5.86523 -6.46289,-6.4668 6.46289,-6.46289 5.90039,5.90235 c 0.0964,-1.7446 0.2917,-3.63877 0.5625,-5.64258 L 851.56445,412.75586 856.31836,408 c 0.51905,-2.56592 1.12545,-5.24411 1.79883,-8.00195 l -0.0879,0.0879 -6.46485,-6.46485 6.4668,-6.46679 2.74219,2.74414 c 0.44559,-1.58812 0.92838,-3.19737 1.40039,-4.80274 l -1.04297,-1.04297 1.91016,-1.91015 c 1.17708,-3.90455 2.40793,-7.79499 3.66406,-11.64649 l -5.57422,-5.57421 6.46289,-6.4668 2.35352,2.35156 c 0.53297,-1.55494 1.06113,-3.10909 1.58593,-4.60937 l -0.83984,-0.83985 1.76172,-1.76172 c 1.46377,-4.13859 2.86329,-8.013 4.14062,-11.46875 l -5.90234,-5.90039 6.46484,-6.46289 2.97852,2.97656 c 0.68959,-1.79717 1.29824,-3.40352 1.7207,-4.48242 l -1.59765,-1.59765 6.21484,-6.21485 c -0.0878,-1.04938 -0.68625,-2.17534 -2.18945,-3.30273 -0.22963,-0.17222 -0.55777,-0.28413 -0.96094,-0.34961 z m -25.29492,12.9707 6.46289,6.46289 -6.46289,6.46485 -6.46485,-6.46485 z m -9.56641,9.5625 6.4668,6.4668 -6.4668,6.46289 L 842,345.79297 Z m 19.13086,0 6.46484,6.4668 -6.46484,6.46289 -6.46484,-6.4668 z m -38.25977,0.002 6.4629,6.46485 -6.4668,6.46484 -6.46289,-6.46484 z m -534.875,0.0508 6.46485,6.46289 -6.46485,6.46289 -6.46289,-6.46289 z m 229.20313,0.26367 6.46289,6.4668 -6.4668,6.46484 -6.46289,-6.46484 z m 19.12891,0 6.46484,6.4668 -6.46484,6.46289 -6.4629,-6.46289 z m 19.13086,0 6.46289,6.4668 -6.46289,6.46289 -6.4629,-6.4668 z m 19.13281,0 6.14453,6.14844 -6.46289,6.46289 -6.14844,-6.14453 z m -162.29492,9.24804 6.46289,6.4668 -6.46289,6.46289 -6.4668,-6.46289 z m 19.1289,0 6.4668,6.4668 -6.4668,6.46289 -6.46679,-6.46289 z m 19.13281,0 6.4629,6.4668 -6.4629,6.46289 -6.46679,-6.46679 z m 152.41016,0 6.46289,6.4668 -6.46289,6.46289 -6.46289,-6.46289 z m 19.13086,0 6.46289,6.4629 -6.46289,6.46679 -6.46484,-6.46289 z m 19.12891,0 6.46679,6.4668 -6.46679,6.46289 -6.46289,-6.46289 z m 19.13281,0 6.4668,6.4668 -6.4668,6.46289 -6.4668,-6.46289 z m 19.13086,0 6.46289,6.4668 -6.46289,6.46289 -6.46485,-6.46679 z m 133.8125,0 6.4668,6.4668 -6.4668,6.46289 -6.4668,-6.46289 z m 19.1289,0 6.4668,6.4668 -6.4668,6.46289 -6.46289,-6.46289 z m 19.13282,0 6.46484,6.4668 -6.46484,6.46289 -6.4668,-6.46679 z m -381.87891,0.004 6.46484,6.46289 -6.46484,6.46289 -6.46484,-6.46289 z m 114.14844,0 6.46679,6.46289 -6.46289,6.46289 -6.46679,-6.46289 z m 114.78515,0 6.4668,6.46289 -6.46289,6.46289 -6.4668,-6.46289 z m -420.1875,0.0449 6.4629,6.4668 -6.46485,6.46289 -6.46484,-6.46289 z m 38.25782,0 6.46679,6.4668 -6.46679,6.4668 -6.46289,-6.4668 z m 19.13281,0 6.41211,6.41602 -6.46289,6.46289 -6.41211,-6.41211 z m 381.87891,0 6.46289,6.4668 -6.41211,6.41211 -6.46289,-6.46289 z m 19.1289,0 6.46485,6.4668 -6.46485,6.4668 -6.46289,-6.4668 z m 38.26367,0 6.46289,6.4668 -6.46289,6.46289 -6.46679,-6.46289 z m -477.5332,0.004 6.46289,6.46289 -6.46289,6.46289 -6.46289,-6.46289 z m 458.40039,0 6.46289,6.46289 -6.46289,6.46289 -6.46289,-6.46289 z m 38.26367,0 6.41016,6.4082 -6.46289,6.4668 -6.41211,-6.41211 z m -305.72656,0.26367 6.46484,6.46289 -6.14648,6.14844 -6.46289,-6.46289 z m 19.13281,0 6.46289,6.4668 -6.46289,6.46289 -6.46679,-6.46289 z m 19.13086,0 6.46485,6.4668 -6.46485,6.46289 -6.46484,-6.46289 z m 19.12891,0 6.4668,6.4668 -6.4668,6.46289 -6.46485,-6.4668 z m 19.13281,0 6.14453,6.14844 -6.46289,6.46289 -6.14844,-6.14453 z m -219.6875,9.24805 6.46484,6.46289 -6.46484,6.4668 -6.46289,-6.4668 z m 19.12891,0 6.46679,6.46289 -6.46679,6.4668 -6.46289,-6.46289 z m 19.13281,0 6.4668,6.46289 -6.4668,6.4668 -6.4668,-6.4668 z m 19.13086,0 6.4668,6.4668 -6.4668,6.46289 -6.46289,-6.4668 z m 19.12891,0 6.46679,6.4668 -6.46289,6.46289 -6.46679,-6.4668 z m 19.13281,0 6.46289,6.46289 -6.46289,6.4668 -6.46289,-6.4668 z m 19.13086,0 6.46484,6.46289 -6.46484,6.4668 -6.46289,-6.46289 z m 19.1289,0 6.4668,6.46289 -6.4668,6.4668 -6.46289,-6.46289 z m 95.02149,0 6.46289,6.4668 -6.46289,6.46289 -6.46289,-6.4668 z m 19.1289,0 6.4668,6.46289 -6.4668,6.4668 -6.46289,-6.4668 z m 19.13282,0 6.46484,6.46289 -6.46484,6.4668 -6.4668,-6.4668 z m 19.13086,0 6.46289,6.46289 -6.4668,6.4668 -6.46289,-6.46289 z m 19.1289,0 6.46289,6.46289 -6.46289,6.4668 -6.46289,-6.4668 z m 19.13281,0 6.4629,6.46289 -6.4629,6.4668 -6.46484,-6.4668 z m 19.13086,0 6.4629,6.4668 -6.4629,6.46289 -6.46289,-6.46289 z m 19.12891,0 6.4668,6.46289 -6.4668,6.4668 -6.46289,-6.4668 z m 95.55078,0 6.4668,6.4668 -6.4668,6.46289 -6.46484,-6.4668 z m 19.13281,0 6.4629,6.46289 -6.4668,6.4668 -6.46289,-6.46289 z m 19.12891,0 6.46289,6.4668 -6.46289,6.46289 L 842,364.91797 Z m -554.00391,0.0527 6.46485,6.46485 -6.46485,6.46484 -6.46289,-6.46484 z m 19.13282,0 6.46289,6.46485 -6.46289,6.46484 -6.4668,-6.46484 z m 19.1289,0 6.41211,6.41211 -6.46289,6.4668 -6.41211,-6.41406 z m 401.00977,0 6.46484,6.46485 -6.41211,6.41406 -6.46679,-6.4668 z m 19.12891,0 6.46679,6.46485 -6.46679,6.46484 -6.4629,-6.46484 z m 19.13281,0 6.46289,6.46485 -6.46289,6.46484 -6.4668,-6.46484 z m 19.1289,0.002 6.41602,6.41015 -6.4668,6.4668 -6.41211,-6.41211 z m -286.59179,0.26367 6.46679,6.46679 -6.14843,6.14649 -6.4668,-6.4668 z m 19.13281,0 6.46484,6.46484 -6.46484,6.46484 -6.4668,-6.46484 z m 19.12891,0 6.46484,6.46484 -6.46484,6.46484 -6.4629,-6.46484 z m 19.13086,0 6.14648,6.14648 -6.46289,6.4668 -6.14649,-6.14649 z m 276.9746,9.24609 6.4668,6.4668 -6.4668,6.46484 -6.46289,-6.46484 z m -496.66015,0.002 6.46289,6.46485 -6.46289,6.46484 -6.4668,-6.46484 z m 19.13086,0 6.46289,6.46485 -6.46485,6.46484 -6.46484,-6.46484 z m 19.1289,0 6.46289,6.4668 -6.46289,6.46289 -6.46289,-6.46484 z m 19.13282,0 6.46289,6.4668 -6.46289,6.46289 -6.46485,-6.46289 z m 19.13086,0 6.46289,6.46485 -6.46289,6.46484 -6.4668,-6.46484 z m 19.1289,0 6.4668,6.46485 -6.4668,6.46484 -6.46289,-6.46484 z m 19.13281,0 6.4629,6.46485 -6.4629,6.46484 -6.46679,-6.46289 z m 19.13086,0 6.46289,6.46485 -6.46484,6.46289 -6.46484,-6.46289 z m 19.12891,0 6.46289,6.4668 -6.46289,6.46289 -6.46289,-6.46484 z m 75.88867,0 6.46289,6.46485 -6.46289,6.46484 -6.46484,-6.46484 z m 19.12891,0 6.46679,6.46485 -6.46679,6.46484 -6.46289,-6.46484 z m 19.13281,0 6.46289,6.4668 -6.46289,6.46289 -6.46289,-6.46484 z m 19.13086,0 6.46289,6.46485 -6.46289,6.46484 -6.46484,-6.46484 z m 19.13281,0 6.46289,6.46485 -6.46679,6.46484 -6.46289,-6.46484 z m 19.12891,0 6.4668,6.4668 -6.4668,6.46289 -6.4668,-6.46289 z m 19.13086,0 6.46289,6.46485 -6.46289,6.46484 -6.46485,-6.46289 z m 19.1289,0 6.4668,6.46485 -6.4668,6.46289 -6.46289,-6.46289 z m 19.13282,0 6.46289,6.4668 -6.46289,6.46289 -6.46289,-6.46484 z m 76.41992,0 6.46289,6.4668 -6.46289,6.46289 -6.46484,-6.46484 z m 19.13086,0 6.46289,6.46485 -6.46289,6.46484 -6.4668,-6.46484 z m 38.26172,0 6.46484,6.46485 -6.46484,6.46484 -6.4668,-6.46289 z m -573.13477,0.0527 6.46485,6.46289 -6.41407,6.41601 -6.46289,-6.46679 z m 19.13086,0 6.4668,6.46289 -6.4668,6.4668 -6.4668,-6.4668 z m 19.12891,0 6.41601,6.41211 -6.46679,6.46679 -6.41211,-6.41601 z m 420.14258,0 6.46289,6.46289 -6.41211,6.41601 -6.46485,-6.46679 z m 19.1289,0 6.46289,6.46289 -6.46289,6.4668 -6.46484,-6.4668 z m 19.13281,0 6.41211,6.41211 -6.46679,6.46679 -6.40821,-6.41601 z m -248.33203,0.26367 6.46485,6.4668 -6.4668,6.46679 -6.46289,-6.46679 z m -19.13086,0.004 6.46289,6.46289 -6.14453,6.14843 -6.46679,-6.46679 z m 38.25977,0 6.14844,6.14453 -6.46485,6.46679 -6.14844,-6.14453 z m -124.0332,9.24414 6.46679,6.46679 -6.46679,6.46289 -6.46289,-6.46289 z m 228.93554,0 6.4668,6.46679 -6.4668,6.4668 -6.46289,-6.4668 z m 172.07227,0 6.4668,6.46679 -6.4668,6.46289 -6.46289,-6.46289 z m -496.66016,0.004 6.46289,6.46289 -6.46289,6.46289 -6.46289,-6.46289 z m 19.13086,0 6.46484,6.46289 -6.46484,6.4668 -6.46484,-6.4668 z m 19.12891,0 6.46679,6.46289 -6.46289,6.46289 -6.46679,-6.46289 z m 19.13281,0 6.4668,6.46289 -6.4668,6.4668 -6.46289,-6.4668 z m 19.12891,0 6.46679,6.46289 -6.46484,6.4668 -6.46484,-6.4668 z m 38.26367,0 6.46289,6.46289 -6.46289,6.46289 -6.46289,-6.46289 z m 19.13086,0 6.46484,6.46289 -6.46484,6.46289 -6.46485,-6.46289 z m 19.1289,0 6.4668,6.46289 -6.46289,6.4668 -6.4668,-6.4668 z m 19.13282,0 6.46679,6.46289 -6.46679,6.4668 -6.4668,-6.4668 z m 56.75781,0 6.46484,6.46289 -6.46484,6.4668 -6.46485,-6.4668 z m 19.13086,0 6.46289,6.46289 -6.46289,6.4668 -6.4668,-6.4668 z m 19.1289,0 6.4668,6.46289 -6.46289,6.46289 -6.4668,-6.46289 z m 19.13282,0 6.46289,6.46289 -6.46289,6.46289 -6.46485,-6.46289 z m 19.12695,0 6.4668,6.46289 -6.4668,6.46289 -6.46289,-6.46289 z m 38.26562,0 6.4629,6.46289 -6.4629,6.4668 -6.46484,-6.4668 z m 19.13086,0 6.4629,6.46289 -6.4629,6.46289 -6.46679,-6.46289 z m 19.12891,0 6.4668,6.46289 -6.46289,6.4668 -6.4668,-6.4668 z m 19.13281,0 6.46289,6.46289 -6.46289,6.46289 -6.46484,-6.46289 z m 57.28711,0 6.4668,6.46289 -6.46484,6.46289 -6.46485,-6.46289 z m 19.13086,0 6.46485,6.46289 -6.46485,6.46289 -6.46289,-6.46289 z m 38.26172,0 6.4668,6.46289 -6.4668,6.4668 L 842,384.05273 Z m -554.00391,0.0527 6.46485,6.46289 -6.41016,6.41211 -6.46679,-6.46289 z m 19.13282,0 6.41211,6.41211 -6.4668,6.46484 -6.41211,-6.41406 z m 439.26758,0 6.46679,6.46289 -6.41211,6.41211 -6.46679,-6.46289 z m 19.13281,0 6.41211,6.41211 -6.4668,6.46289 -6.4082,-6.41016 z m -248.33399,0.26367 6.4668,6.46484 -6.14648,6.14844 -6.46485,-6.46484 z m 19.13282,0.002 6.14843,6.14649 -6.46679,6.46484 -6.14454,-6.14844 z m -257.84571,9.2461 6.46485,6.46679 -6.46485,6.46485 -6.46289,-6.46485 z m 38.16211,0 6.46289,6.46679 -6.46679,6.46289 -6.4629,-6.46289 z m 38.25781,0 6.46485,6.46679 -6.46485,6.46289 -6.46484,-6.46289 z m 38.26368,0 6.46289,6.46679 -6.46289,6.46485 -6.4668,-6.46485 z m 19.13086,0 6.46289,6.46679 -6.46289,6.46485 -6.4668,-6.46485 z m 57.39062,0 6.46484,6.46679 -6.46484,6.46485 -6.46484,-6.46485 z m 19.13086,0 6.4668,6.46679 -6.4668,6.46289 -6.46289,-6.46289 z m 19.13281,0 6.46289,6.46679 -6.46289,6.46485 -6.46679,-6.46485 z m 37.62696,0 6.46289,6.46679 -6.46485,6.46485 -6.46289,-6.46485 z m 19.1289,0 6.46289,6.46679 -6.46484,6.46485 -6.46289,-6.46485 z m 19.12891,0 6.46679,6.46679 -6.46679,6.46289 -6.46289,-6.46289 z m 38.26367,0 6.46289,6.46679 -6.46289,6.46289 -6.46484,-6.46289 z m 19.13281,0 6.46289,6.46679 -6.46289,6.46485 -6.46679,-6.46485 z m 57.38867,0 6.4668,6.46679 -6.4668,6.46485 -6.46289,-6.46485 z m 38.26368,0 6.46484,6.46679 -6.46484,6.46289 -6.46485,-6.46289 z m 38.15625,0 6.46679,6.46679 -6.46289,6.46485 -6.46679,-6.46485 z m 38.26367,0 6.46289,6.46679 -6.46289,6.46289 -6.4668,-6.46289 z m -477.53125,0.002 6.46289,6.46484 -6.46289,6.46289 -6.46485,-6.46289 z m 38.25976,0 6.4668,6.46484 -6.4668,6.46485 -6.46289,-6.46485 z m 57.39649,0 6.46289,6.46484 -6.4668,6.46289 -6.46289,-6.46289 z m 19.1289,0 6.4629,6.46484 -6.4629,6.46289 -6.46484,-6.46289 z m 152.41016,0 6.46289,6.46484 -6.46289,6.46289 -6.46289,-6.46289 z m 57.39453,0 6.46485,6.46484 -6.4668,6.46485 -6.46289,-6.46485 z m 19.12891,0 6.46289,6.46484 -6.46485,6.46485 -6.46289,-6.46485 z m 38.26172,0 6.46289,6.46484 -6.46289,6.46289 -6.46289,-6.46289 z m 76.41992,0 6.46289,6.46484 -6.46289,6.46289 -6.46484,-6.46289 z m 38.26367,0 6.46289,6.46484 -6.46289,6.46485 -6.4668,-6.46485 z m -534.875,0.0527 6.41211,6.41211 -6.41211,6.41211 -6.41211,-6.41211 z m 458.40039,0 6.41211,6.41211 -6.41211,6.41211 -6.41211,-6.41211 z m -229.19922,0.26758 6.14649,6.14453 -6.14649,6.14844 -6.14844,-6.14844 z m -238.71679,9.24414 6.41406,6.41602 -6.46485,6.46289 -6.4121,-6.41211 z m 19.02734,0 6.4668,6.4668 -6.41211,6.41211 -6.46289,-6.46484 z m 19.13281,0 6.46289,6.4668 -6.46289,6.46289 -6.46289,-6.46289 z m 19.13086,0 6.46484,6.4668 -6.46484,6.46289 -6.46484,-6.46289 z m 38.26172,0 6.4668,6.4668 -6.4668,6.46289 -6.4668,-6.46289 z m 57.39258,0 6.46289,6.46485 -6.46289,6.46484 -6.46289,-6.46289 z m 19.13086,0 6.46484,6.4668 -6.46484,6.46289 -6.46485,-6.46289 z m 19.1289,0 6.4668,6.4668 -6.46289,6.46289 -6.4668,-6.46289 z m 19.13282,0 6.46679,6.4668 -6.46679,6.46289 -6.4668,-6.46484 z m 37.625,0 6.46679,6.4668 -6.14843,6.14648 -6.4629,-6.46484 z m 19.13281,0 6.46289,6.4668 -6.46289,6.46289 -6.4668,-6.46289 z m 19.13086,0 6.46289,6.4668 -6.46289,6.46289 -6.4668,-6.46289 z m 19.1289,0 6.4668,6.4668 -6.4668,6.46289 -6.46289,-6.46289 z m 19.13282,0 6.46289,6.4668 -6.46289,6.46289 -6.4668,-6.46289 z m 57.39257,0 6.4629,6.46485 -6.4629,6.46484 -6.46679,-6.46289 z m 38.25977,0 6.4668,6.4668 -6.4668,6.46289 -6.46289,-6.46289 z m 19.13281,0 6.46289,6.4668 -6.46289,6.46289 -6.46679,-6.46484 z m 38.15821,0 6.46289,6.4668 -6.41211,6.41211 -6.46289,-6.46484 z m 19.1289,0 6.4668,6.4668 -6.4668,6.46289 -6.46289,-6.46289 z m 19.13086,0 6.46485,6.4668 -6.46485,6.46289 -6.46484,-6.46289 z m 38.26172,0 6.4668,6.4668 -6.4668,6.46289 L 842,403.1875 Z m -477.5293,0.004 6.46289,6.46289 -6.46289,6.4668 -6.46679,-6.4668 z m 38.25782,0 6.46679,6.46289 -6.46484,6.46289 -6.46484,-6.46289 z m 19.13086,0 6.46679,6.46289 -6.46679,6.46289 -6.46289,-6.46289 z m 95.65429,0 6.14844,6.14453 -6.46289,6.46484 -6.14844,-6.14648 z m 114.14844,0 6.4668,6.46289 -6.46289,6.46289 -6.4668,-6.46289 z m 19.13281,0 6.4668,6.46289 -6.4668,6.46289 -6.46289,-6.46289 z m 38.26367,0 6.4629,6.46289 -6.4629,6.46289 -6.46679,-6.46289 z m 57.39258,0 6.41016,6.41016 -6.46484,6.46484 -6.41211,-6.41211 z m 76.41602,0 6.4668,6.46289 -6.4629,6.46289 -6.46679,-6.46289 z m -296.10352,9.24609 6.46485,6.46485 -6.46485,6.46289 -6.46484,-6.46289 z m -229.20117,0.26563 6.46289,6.46484 -6.46289,6.46485 -6.4668,-6.4629 z m 458.40039,0 6.4668,6.46679 -6.4668,6.4629 -6.46289,-6.46485 z m -477.48047,0.0527 6.41407,6.41211 -6.46485,6.4668 -6.41211,-6.41602 z m 38.15821,0 6.46679,6.4668 -6.41601,6.41211 -6.46289,-6.4668 z m 19.13281,0 6.46484,6.46289 -6.46484,6.4668 -6.4668,-6.46289 z m 19.13086,0 6.46289,6.4668 -6.46289,6.46289 -6.4668,-6.46289 z m 19.1289,0 6.4668,6.4668 -6.4668,6.46289 -6.46289,-6.46289 z m 19.13282,0 6.46289,6.4668 -6.46289,6.46289 -6.46485,-6.4668 z m 19.13086,0 6.46289,6.4668 -6.46485,6.46289 -6.46484,-6.46289 z m 19.1289,0 6.4668,6.46289 -6.4668,6.4668 -6.46289,-6.46289 z m 19.13281,0 6.46485,6.4668 -6.46485,6.46289 -6.46679,-6.4668 z m 19.12891,0 6.46484,6.4668 -6.46289,6.46289 -6.46679,-6.4668 z m 19.13086,0 6.4668,6.4668 -6.4668,6.46289 -6.46289,-6.4668 z m 19.13281,0 6.14453,6.14844 -6.46289,6.46289 -6.14648,-6.14453 z m 37.625,0 6.46485,6.4668 -6.14844,6.14453 -6.46289,-6.46289 z m 19.13086,0 6.4668,6.46289 -6.4668,6.4668 -6.46484,-6.46289 z m 19.13281,0 6.46289,6.46289 -6.46679,6.4668 -6.46289,-6.46289 z m 19.12891,0 6.46289,6.46289 -6.46289,6.4668 -6.46289,-6.46289 z m 19.13086,0 6.46289,6.4668 -6.46289,6.46289 -6.46289,-6.4668 z m 19.13281,0 6.46289,6.4668 -6.46289,6.46289 -6.46679,-6.46289 z m 19.12891,0 6.4668,6.46289 -6.4668,6.4668 -6.46289,-6.46289 z m 19.13086,0 6.4668,6.4668 -6.4668,6.46289 -6.46485,-6.46289 z m 19.1289,0 6.4668,6.4668 -6.4668,6.46289 -6.46289,-6.46289 z m 19.13282,0 6.46289,6.46289 -6.46289,6.4668 -6.46289,-6.4668 z m 19.13086,0 6.41211,6.41211 -6.46485,6.46289 -6.41015,-6.4082 z m 38.16015,0 6.46289,6.46289 -6.41211,6.41602 -6.46679,-6.4668 z m 19.12891,0 6.46289,6.46289 -6.46289,6.4668 -6.4668,-6.4668 z m 19.13086,0 6.46289,6.4668 -6.46289,6.46289 -6.46289,-6.4668 z m 19.13281,0 6.46289,6.4668 -6.46289,6.46289 -6.4668,-6.46289 z m -315.23828,9.24805 6.46289,6.4668 -6.46289,6.46289 -6.4668,-6.4668 z m 19.12891,0 6.46289,6.4668 -6.46289,6.46289 -6.4629,-6.4668 z m -248.33204,0.26758 6.46485,6.46289 -6.46485,6.46289 -6.46289,-6.46289 z m 19.13282,0 6.46289,6.46289 -6.46289,6.46289 -6.4668,-6.46289 z m 439.26758,0 6.46679,6.46289 -6.46289,6.4668 -6.4668,-6.4668 z m 19.13281,0 6.46289,6.46289 -6.46289,6.46289 -6.46289,-6.46289 z m -439.32227,0.0527 6.46289,6.46289 -6.41015,6.41211 -6.46485,-6.46289 z m 19.13086,0 6.46484,6.46485 -6.46484,6.46484 -6.46289,-6.4668 z m 19.12891,0 6.46679,6.46485 -6.46289,6.46484 -6.46679,-6.4668 z m 19.13281,0 6.4668,6.46485 -6.4668,6.46484 -6.4668,-6.4668 z m 19.13086,0 6.46484,6.46289 -6.46484,6.4668 -6.46484,-6.46484 z m 19.12891,0 6.46484,6.46485 -6.46484,6.46484 -6.46289,-6.46484 z m 19.13281,0 6.46289,6.46485 -6.46289,6.46484 -6.46289,-6.46484 z m 19.13086,0 6.46484,6.46289 -6.46484,6.4668 -6.46485,-6.4668 z m 19.1289,0 6.4668,6.46485 -6.46289,6.46484 -6.4668,-6.4668 z m 19.13282,0 6.14843,6.14844 -6.46679,6.46289 -6.14844,-6.14648 z m 56.75781,0 6.46289,6.46289 -6.14648,6.14844 -6.4629,-6.46289 z m 19.13086,0 6.46289,6.46289 -6.4668,6.4668 -6.46289,-6.46484 z m 19.1289,0 6.4668,6.46289 -6.4668,6.4668 -6.46679,-6.46484 z m 19.13282,0 6.46484,6.46485 -6.46484,6.46484 -6.4668,-6.4668 z m 19.13086,0 6.46289,6.46485 -6.46289,6.46484 -6.4668,-6.46484 z m 19.1289,0 6.46289,6.46485 -6.46289,6.46484 -6.46289,-6.4668 z m 19.13281,0 6.4629,6.46485 -6.4629,6.46484 -6.46484,-6.46484 z m 19.13086,0 6.4629,6.46289 -6.46485,6.4668 -6.46484,-6.46484 z m 19.12891,0 6.4668,6.46289 -6.4668,6.4668 -6.4668,-6.46484 z m 19.13281,0 6.41211,6.41211 -6.46484,6.46289 -6.41406,-6.41015 z m 57.28711,0 6.4668,6.46289 -6.41602,6.41211 -6.46289,-6.46289 z m 19.13086,0 6.4668,6.46485 -6.4668,6.46484 -6.46289,-6.46484 z m 19.13281,0 6.4629,6.46485 -6.4629,6.46484 -6.46679,-6.46484 z m -315.23828,9.24805 6.46289,6.46289 -6.46289,6.4668 -6.46289,-6.4668 z m 19.12891,0 6.4668,6.46289 -6.46485,6.4668 -6.46484,-6.4668 z m 19.13086,0 6.4668,6.46289 -6.4668,6.4668 -6.46289,-6.4668 z m -267.45899,0.26367 6.4629,6.4668 -6.46485,6.46289 -6.46484,-6.46289 z m 458.39844,0 6.46485,6.4668 -6.46485,6.46484 -6.46289,-6.46484 z m 38.25977,0 6.46679,6.4668 -6.46289,6.46289 -6.46679,-6.46289 z m -477.5293,0.002 6.46289,6.46485 -6.46289,6.46289 -6.46289,-6.46289 z m 19.12891,0 6.46679,6.46485 -6.46679,6.46484 -6.46289,-6.46484 z m 439.27148,0 6.46289,6.46485 -6.46289,6.46289 -6.46289,-6.46289 z m -286.27539,0.0469 6.46484,6.4668 -6.46289,6.46679 -6.46679,-6.46679 z m 228.93359,0 6.4668,6.4668 -6.4668,6.46679 -6.46289,-6.46679 z m -362.84765,0.004 6.46484,6.46484 -6.41406,6.41406 -6.46289,-6.4668 z m 19.1289,0 6.46485,6.46289 -6.46289,6.46679 -6.4668,-6.46679 z m 19.13086,0 6.4668,6.46289 -6.4668,6.46679 -6.46289,-6.46679 z m 19.13282,0 6.46289,6.46289 -6.46289,6.46679 -6.46485,-6.46484 z m 19.13086,0 6.46289,6.46289 -6.46289,6.46289 -6.4668,-6.46289 z m 19.1289,0 6.4668,6.46289 -6.4668,6.46679 -6.46289,-6.46679 z m 19.13281,0 6.46485,6.46289 -6.46485,6.46679 -6.46679,-6.46679 z m 38.25977,0 6.14844,6.14453 -6.4668,6.46679 -6.14453,-6.14843 z m 75.88867,0 6.46289,6.46289 -6.14453,6.14843 -6.4668,-6.46679 z m 19.12891,0 6.46679,6.46289 -6.46679,6.46679 -6.46289,-6.46679 z m 19.13281,0 6.46484,6.46289 -6.46484,6.46679 -6.46289,-6.46679 z m 19.13086,0 6.46289,6.46289 -6.46289,6.46679 -6.46289,-6.46484 z m 19.12891,0 6.46679,6.46289 -6.46289,6.46289 -6.46679,-6.46289 z m 19.13281,0 6.4668,6.46289 -6.4668,6.46679 -6.46289,-6.46679 z m 19.13086,0 6.46289,6.46289 -6.46289,6.46679 -6.46485,-6.46679 z m 38.26172,0 6.41211,6.4121 -6.4668,6.4668 -6.4082,-6.41601 z m 76.41992,0 6.46484,6.46289 -6.41211,6.41601 -6.46484,-6.4668 z m 19.13086,0 6.46289,6.46289 -6.46289,6.46679 -6.46289,-6.46679 z m 19.1289,0 6.4668,6.46289 -6.46289,6.46289 -6.4668,-6.46289 z m -334.36718,9.24804 6.46289,6.46289 -6.46289,6.46289 -6.46289,-6.46289 z m 19.13281,0 6.46289,6.46289 -6.4668,6.4668 -6.46289,-6.4668 z m 19.12891,0 6.46484,6.46289 -6.46484,6.46289 -6.4629,-6.46289 z m 19.13086,0 6.46289,6.46289 -6.46289,6.46289 -6.4629,-6.46289 z m -267.4629,0.26367 6.46485,6.4668 -6.46485,6.46289 -6.46289,-6.46289 z m 19.13282,0 6.46289,6.4668 -6.46289,6.46289 -6.4668,-6.46289 z m 19.13086,0 6.46484,6.4668 -6.46484,6.46289 -6.46485,-6.46289 z m 401.00781,0 6.46484,6.4668 -6.46484,6.46289 -6.46485,-6.46289 z m 19.12891,0 6.46679,6.4668 -6.46679,6.46289 -6.4629,-6.46289 z m 19.13281,0 6.46289,6.4668 -6.46289,6.46289 -6.4668,-6.4668 z m 19.13086,0.002 6.46484,6.46484 -6.46484,6.46289 -6.46485,-6.46289 z m -420.18946,0.0469 6.46289,6.4668 -6.46289,6.4668 -6.46679,-6.4668 z m 95.65235,0 6.46484,6.4668 -6.46484,6.4668 -6.46485,-6.4668 z m 133.2832,0 6.46289,6.4668 -6.4668,6.4668 -6.46289,-6.4668 z m 95.65234,0 6.4629,6.4668 -6.4629,6.4668 -6.46679,-6.4668 z m -343.7207,0.004 6.46484,6.46289 -6.41406,6.41211 -6.46484,-6.46289 z m 38.26172,0 6.46289,6.46289 -6.46289,6.46289 -6.46289,-6.46289 z m 19.13086,0 6.46484,6.46289 -6.46679,6.46289 -6.46289,-6.46289 z m 19.12891,0 6.46679,6.46289 -6.46679,6.4668 -6.46289,-6.4668 z m 19.13281,0 6.46289,6.46679 -6.46289,6.4629 -6.4668,-6.4668 z m 38.26367,0 6.14453,6.14453 -6.46289,6.4668 -6.14844,-6.14844 z m 95.01758,0 6.46289,6.46289 -6.14453,6.14844 -6.4668,-6.4668 z m 38.26172,0 6.46484,6.46289 -6.46484,6.4668 -6.4668,-6.4629 z m 19.13086,0 6.46289,6.46289 -6.4668,6.46289 -6.46289,-6.46289 z m 19.1289,0 6.4668,6.46289 -6.4668,6.4668 -6.46289,-6.4668 z m 19.13281,0 6.4629,6.46289 -6.4629,6.46289 -6.46484,-6.46289 z m 38.26368,0 6.4082,6.4082 -6.46289,6.4668 -6.41211,-6.41211 z m 95.54687,0 6.4668,6.46289 -6.41406,6.41211 -6.46485,-6.46289 z m 19.13281,0 6.4629,6.46289 -6.4668,6.4668 -6.46289,-6.4668 z m -334.37109,9.24414 6.4668,6.4668 -6.4668,6.46289 -6.46289,-6.46289 z m 19.13281,0.004 6.46289,6.46289 -6.46289,6.46289 -6.46289,-6.46289 z m 19.13086,0 6.46485,6.46289 -6.46485,6.46289 -6.46484,-6.46289 z m 19.12891,0 6.46484,6.46289 -6.46484,6.46289 -6.46289,-6.46289 z m 19.12891,0 6.46679,6.46289 -6.46289,6.46289 -6.4668,-6.46289 z m -286.58985,0.26367 6.46485,6.46289 -6.46485,6.46679 -6.46484,-6.46289 z m 19.13086,0 6.4668,6.46289 -6.4668,6.46679 -6.4668,-6.46679 z m 19.13281,0 6.46289,6.46679 -6.46289,6.46289 -6.46679,-6.46289 z m 19.12891,0 6.46484,6.46679 -6.46484,6.46289 -6.46289,-6.46679 z m 381.87891,0 6.46484,6.46679 -6.46484,6.46289 -6.4668,-6.46289 z m 19.1289,0 6.46485,6.46679 -6.46485,6.46289 -6.46289,-6.46289 z m 19.13086,0 6.46289,6.46289 -6.46289,6.46679 -6.46289,-6.46679 z m 19.13281,0 6.46289,6.46679 -6.46289,6.46289 -6.46289,-6.46289 z m 19.13086,0 6.46289,6.46679 -6.46289,6.46289 -6.46484,-6.46289 z m -439.32422,0.0527 6.46485,6.46484 -6.41211,6.41211 -6.46289,-6.46484 z m 76.52344,0 6.4668,6.46484 -6.46289,6.46485 -6.4668,-6.46485 z m 152.41016,0 6.46679,6.46484 -6.14843,6.14649 -6.46289,-6.46289 z m 38.26367,0 6.46289,6.46484 -6.46289,6.46485 -6.46484,-6.46485 z m 191.20508,0 6.46289,6.46484 -6.41211,6.41211 -6.46289,-6.46289 z m -439.27149,0.002 6.4668,6.46289 -6.4668,6.46485 -6.46289,-6.46485 z m 19.13282,0 6.46289,6.46289 -6.46289,6.46485 -6.46485,-6.46485 z m 19.13086,0 6.46289,6.46289 -6.46289,6.4668 -6.4668,-6.4668 z m 38.25781,0 6.4668,6.46289 -6.4629,6.4668 -6.46679,-6.4668 z m 19.13281,0 6.14844,6.14649 -6.4668,6.46289 -6.14648,-6.14649 z m 133.28125,0 6.46484,6.46289 -6.46484,6.4668 -6.46289,-6.4668 z m 38.26367,0 6.46289,6.46289 -6.46289,6.4668 -6.46679,-6.4668 z m 19.12891,0 6.46289,6.46289 -6.46289,6.46485 -6.46289,-6.46485 z m 19.1289,0 6.46485,6.46289 -6.46289,6.46485 -6.46485,-6.46485 z m 19.13086,0 6.41602,6.41016 -6.4668,6.4668 -6.41211,-6.41407 z m 133.81641,0 6.46289,6.46289 -6.46289,6.46485 -6.4668,-6.46485 z m -353.5,9.2461 6.46289,6.46484 -6.46484,6.46485 -6.46485,-6.46485 z m 19.12891,0 6.46679,6.46484 -6.46679,6.46485 -6.46289,-6.46485 z m 19.13281,0 6.46289,6.46484 -6.46289,6.46485 -6.4668,-6.46485 z m 19.12891,0 6.46484,6.46484 -6.46484,6.46485 -6.4629,-6.46485 z m 19.13086,0 6.46289,6.46484 -6.46289,6.46485 -6.4629,-6.46485 z m 19.13281,0 6.46289,6.46484 -6.46289,6.46485 -6.4668,-6.46485 z m -286.59571,0.26758 6.46485,6.46484 -6.46485,6.46484 -6.46289,-6.46679 z m 19.13282,0 6.46289,6.46484 -6.46289,6.46484 -6.46289,-6.46484 z m 19.1289,0 6.4668,6.46484 -6.46484,6.46484 -6.46485,-6.46679 z m 19.13086,0 6.4668,6.46484 -6.4668,6.46484 -6.46484,-6.46484 z m 362.74805,0 6.46289,6.46484 -6.46289,6.46484 -6.46289,-6.46484 z m 19.13086,0 6.46484,6.46289 -6.46679,6.46679 -6.4629,-6.46484 z m 19.12891,0 6.46679,6.46484 -6.46679,6.46484 -6.46485,-6.46484 z m 19.13281,0 6.46679,6.46484 -6.46679,6.46484 -6.4668,-6.46484 z m 19.13086,0 6.46484,6.46484 -6.46484,6.46484 -6.46485,-6.46679 z m 19.13086,0 6.46289,6.46484 -6.46289,6.46484 -6.46485,-6.46679 z m -420.19141,0.0508 6.4668,6.46289 -6.4668,6.4668 -6.46289,-6.4629 z m 19.13086,0 6.46484,6.46679 -6.46484,6.4629 -6.46484,-6.4629 z m 19.12891,0 6.46679,6.46679 -6.46679,6.4629 -6.46289,-6.4629 z m 19.13281,0 6.4668,6.46679 -6.4668,6.4629 -6.46289,-6.4668 z m 19.13086,0 6.14648,6.14843 -6.46289,6.4629 -6.14844,-6.14454 z m 152.41211,0 6.46484,6.46289 -6.46484,6.4668 -6.4668,-6.4629 z m 19.13086,0 6.46289,6.46679 -6.4668,6.4668 -6.46289,-6.4668 z m 19.1289,0 6.4668,6.46679 -6.4668,6.4629 -6.46289,-6.4629 z m 19.13281,0 6.4629,6.46679 -6.4629,6.4629 -6.46484,-6.4668 z m 19.13086,0 6.41016,6.41601 -6.46484,6.46289 -6.41211,-6.41211 z m 133.8125,0 6.4629,6.46679 -6.41211,6.41211 -6.46289,-6.46289 z m 19.12891,0 6.4668,6.46679 -6.4668,6.4629 L 842,460.58398 Z m -477.5293,0.004 6.46289,6.46289 -6.4121,6.41211 -6.4668,-6.46289 z m 228.93555,0 6.46289,6.46289 -6.14844,6.14649 -6.46289,-6.46485 z"
       id="rect5318"
       inkscape:connector-curvature="0"
       transform="matrix(0.26458334,0,0,0.26458334,0,106.50001)" />
    <path
       style="fill:#413014;stroke:none;stroke-width:0.26458335px;stroke-linecap:butt;stroke-linejoin:miter;stroke-opacity:1;fill-opacity:1"
       d="m 233.96727,190.50522 c 3.02381,2.83482 3.49628,24.85194 3.49628,24.85194 l -0.37798,14.93005 -10.67783,1.22843 -1.32291,-15.11905 c 0,0 5.57515,-20.6942 5.66964,-21.07217 0.0945,-0.37798 3.2128,-4.8192 3.2128,-4.8192 z"
       id="path5435"
       inkscape:connector-curvature="0" />
    <path
       sodipodi:nodetypes="cssccccccccccccccc"
       inkscape:connector-curvature="0"
       id="path4503"
       d="m 47.081595,277.82328 c 0,0 0.719641,-17.99105 9.715166,-24.108 8.995523,-6.11696 13.673196,-6.47679 16.911584,-6.47679 3.23839,0 169.475675,-1.07945 169.475675,-1.07945 0,0 29.16672,1.85103 37.42182,11.1856 6.11698,7.19643 9.35491,21.19828 8.63525,23.71702 -0.71963,2.51876 5.75715,9.71517 5.75715,9.71517 l -25.54729,-5.39731 c 0,0 -7.55624,-2.51874 -5.75713,-5.0375 1.79909,-2.51874 6.11695,-8.63569 7.19642,-4.31784 1.07945,4.31784 1.43928,-1.79911 1.43928,-1.79911 0,0 -6.83661,-11.15445 -20.50981,-10.07498 -13.67319,1.07945 -170.555125,-1.07947 -170.555125,-1.07947 0,0 -16.551763,2.51875 -21.589256,5.03749 -5.037493,2.51875 0.719641,1.43929 0.719641,1.43929 0,0 6.476779,5.03749 3.958031,7.55624 -2.518746,2.51874 -15.832123,4.31785 -15.832123,4.31785 z"
       style="fill:url(#linearGradient4511);fill-opacity:1;stroke:none;stroke-width:0.25187469px;stroke-linecap:butt;stroke-linejoin:miter;stroke-opacity:1" />
    <path
       style="fill:#413014;fill-rule:evenodd;stroke:#000000;stroke-width:0.26458335px;stroke-linecap:butt;stroke-linejoin:miter;stroke-opacity:1;fill-opacity:1"
       d="m 175.56995,231.70463 c 0,-0.37798 -0.85045,-11.43378 -0.66146,-14.93006 0.18899,-3.49628 3.68526,-8.12649 7.18155,-8.22098 3.49627,-0.0945 7.27604,3.96875 7.46502,7.27604 0.18899,3.30729 -1.03943,15.7805 -1.03943,15.7805 z"
       id="path4513"
       inkscape:connector-curvature="0" />
    <path
       inkscape:connector-curvature="0"
       id="path4515"
       d="m 98.19542,231.70463 c 0,-0.37798 -0.85045,-11.43378 -0.66146,-14.93006 0.18899,-3.49628 3.68526,-8.12649 7.18155,-8.22098 3.49627,-0.0945 7.27604,3.96875 7.46502,7.27604 0.18899,3.30729 -1.03943,15.7805 -1.03943,15.7805 z"
       style="fill:#413014;fill-opacity:1;fill-rule:evenodd;stroke:#000000;stroke-width:0.26458335px;stroke-linecap:butt;stroke-linejoin:miter;stroke-opacity:1" />
    <path
       style="fill:#4caf50;fill-rule:evenodd;stroke:none;stroke-width:0.11213066px;stroke-linecap:butt;stroke-linejoin:miter;stroke-opacity:1;fill-opacity:1"
       d="m 15.547126,223.56894 c 0,0 4.08476,-2.88336 5.76672,-10.89269 1.68196,-8.00933 1.121306,-15.13764 1.121306,-15.13764 0,0 -5.606532,-0.72084 -6.327373,3.44401 -0.720839,4.16486 -0.400466,5.52644 -0.400466,5.52644 0,0 -4.56532,-6.08709 -2.242613,-8.89036 2.322706,-2.80326 8.169519,-2.40279 8.169519,-2.40279 0,0 -6.407466,-7.52878 -7.128306,-3.28383 -0.72084,4.24494 0,4.32504 0,4.32504 0,0 -5.5264396,-4.00467 -3.6042,-6.08709 1.92224,-2.08243 3.924573,-2.72318 4.645413,-2.72318 0.72084,0 6.407467,2.48289 6.807933,3.84448 0.400466,1.36159 1.2014,2.32271 1.2014,2.32271 0,0 3.283827,-3.12364 6.888026,-2.24261 3.6042,0.88102 4.405134,8.48989 4.405134,8.48989 0,0 -3.604201,-6.32737 -5.526441,-5.68663 -1.922239,0.64075 -2.803266,1.84215 -2.803266,1.84215 0,0 3.444013,-0.0801 4.56532,1.68196 1.121307,1.76205 0.560653,7.36858 0.560653,7.36858 0,0 -2.723174,-6.48755 -4.56532,-6.08709 -1.842146,0.40047 -2.082427,1.44168 -2.082427,1.44168 0,0 1.842148,9.21073 -0.160186,14.09643 -2.002333,4.88569 -4.244946,12.73484 -4.244946,12.73484 z"
       id="path4527"
       inkscape:connector-curvature="0" />
    <path
       inkscape:connector-curvature="0"
       id="path4529"
       d="m 315.84585,232.08177 c 0,0 3.53624,-2.49617 4.99233,-9.42997 1.4561,-6.9338 0.97074,-13.10488 0.97074,-13.10488 0,0 -4.85366,-0.62405 -5.4777,2.98153 -0.62404,3.60558 -0.34669,4.78432 -0.34669,4.78432 0,0 -3.95227,-5.26969 -1.94147,-7.69652 2.0108,-2.42682 7.07248,-2.08013 7.07248,-2.08013 0,0 -5.54704,-6.51778 -6.17108,-2.84286 -0.62405,3.67491 0,3.74425 0,3.74425 0,0 -4.78433,-3.4669 -3.12022,-5.26969 1.66412,-1.80279 3.39757,-2.35749 4.02161,-2.35749 0.62404,0 5.54704,2.14947 5.89373,3.32822 0.34669,1.17875 1.04008,2.01081 1.04008,2.01081 0,0 2.84285,-2.70419 5.96306,-1.94147 3.12021,0.76272 3.8136,7.34983 3.8136,7.34983 0,0 -3.12022,-5.4777 -4.78434,-4.923 -1.6641,0.55471 -2.42682,1.59478 -2.42682,1.59478 0,0 2.98153,-0.0693 3.95227,1.45609 0.97073,1.52544 0.48536,6.3791 0.48536,6.3791 0,0 -2.35749,-5.61637 -3.95227,-5.26969 -1.59477,0.34669 -1.80279,1.24808 -1.80279,1.24808 0,0 1.59478,7.97387 -0.13867,12.2035 -1.73345,4.22962 -3.67492,11.02474 -3.67492,11.02474 z"
       style="fill:#4caf50;fill-opacity:1;fill-rule:evenodd;stroke:none;stroke-width:0.09707322px;stroke-linecap:butt;stroke-linejoin:miter;stroke-opacity:1" />
    <path
       style="fill:#4caf50;fill-opacity:1;fill-rule:evenodd;stroke:none;stroke-width:0.07246197px;stroke-linecap:butt;stroke-linejoin:miter;stroke-opacity:1"
       d="m 298.1664,232.79825 c 0,0 2.63969,-1.86331 3.72661,-7.03916 1.08693,-5.17586 0.72462,-9.78237 0.72462,-9.78237 0,0 -3.62309,-0.46583 -4.08892,2.22562 -0.46582,2.69145 -0.25879,3.57134 -0.25879,3.57134 0,0 -2.95024,-3.93365 -1.44925,-5.7452 1.501,-1.81154 5.27938,-1.55275 5.27938,-1.55275 0,0 -4.14068,-4.86531 -4.60651,-2.1221 -0.46583,2.7432 0,2.79496 0,2.79496 0,0 -3.57134,-2.58793 -2.32914,-3.93365 1.24221,-1.34573 2.53617,-1.75979 3.002,-1.75979 0.46582,0 4.14068,1.60451 4.39947,2.4844 0.2588,0.8799 0.77639,1.50101 0.77639,1.50101 0,0 2.12209,-2.01859 4.45123,-1.44925 2.32913,0.56935 2.84672,5.48641 2.84672,5.48641 0,0 -2.32914,-4.08892 -3.57135,-3.67486 -1.24219,0.41408 -1.81154,1.19045 -1.81154,1.19045 0,0 2.22561,-0.0517 2.95024,1.08693 0.72462,1.13869 0.36231,4.76179 0.36231,4.76179 0,0 -1.75979,-4.19244 -2.95024,-3.93366 -1.19045,0.2588 -1.34573,0.93166 -1.34573,0.93166 0,0 1.19045,5.95223 -0.10351,9.10951 -1.29396,3.15727 -2.74321,8.2296 -2.74321,8.2296 z"
       id="path4531"
       inkscape:connector-curvature="0" />
  </g>
</svg>
